<svg width="862" height="355" viewBox="0 0 862 355" fill="none" xmlns="http://www.w3.org/2000/svg">
<mask id="path-1-outside-1_1_7" maskUnits="userSpaceOnUse" x="0" y="0" width="862" height="355" fill="black">
<rect fill="white" width="862" height="355"/>
<path fill-rule="evenodd" clip-rule="evenodd" d="M225.441 2.67743C206.145 7.32743 192.608 20.2694 192.608 34.0664C192.608 47.2654 203.208 59.4824 216.207 61.2644C227.851 62.8604 241.093 53.9564 244.463 42.2654C247.52 31.6584 244.546 22.9144 235.082 14.6824C231.704 11.7454 228.941 8.78842 228.941 8.11242C228.941 5.56342 235.257 4.1394 245.941 4.2774C256.395 4.4134 258.994 5.00441 271.441 10.0754C293.5 22.5 275.182 11.5004 273.465 10.1474C272.378 9.29143 267.203 7.19942 261.965 5.49942C254.084 2.94142 250.457 2.34842 240.941 2.06042C234.616 1.86942 227.641 2.14643 225.441 2.67743ZM835.441 43.0584C831.714 44.7224 827.41 49.2374 826.005 52.9564C824.504 56.9294 824.684 65.0914 826.362 69.1074C829.671 77.0254 841.849 80.5384 850.441 76.0534C862.124 69.9534 861.842 50.2164 849.981 43.9444C845.112 41.3694 839.933 41.0544 835.441 43.0584ZM617.691 44.3884L628.941 44.7074L629.15 96.4244C629.46 173.399 629.464 187.394 629.191 243.391L628.941 294.641H620C615.082 294.641 610.781 295.091 610.441 295.641C609.614 296.98 671.87 296.98 673.941 295.641C674.969 294.976 672.533 294.667 666.191 294.656L656.941 294.641L656.949 228.891C656.953 187.748 657.349 160.717 658.007 156.664C659.339 148.452 665.424 135.513 670.778 129.505C685.424 113.072 712.009 110.445 726.694 123.981C729.123 126.22 732.005 129.807 733.1 131.952C737.598 140.77 737.904 145.621 737.938 208.641C737.973 273.451 738.143 275.729 743.686 285.913C746.947 291.906 752.572 296.914 757.799 298.48C763.273 300.12 772.766 299.92 778.257 298.049C786.94 295.091 795.539 285.276 797.452 276.141C797.963 273.7 797.555 274.066 795.261 278.109C790.108 287.188 782.341 289.926 773.922 285.631C766.212 281.698 766.511 284.13 765.868 220.141C765.215 155.077 764.967 152.633 757.473 137.141C747.376 116.267 729.177 107.143 704.191 110.427C687.872 112.572 671.245 123.555 662.441 138.005C660.241 141.616 658.104 144.586 657.691 144.605C657.278 144.625 656.941 121.916 656.941 94.1414V43.6414L631.691 43.8554C617.803 43.9724 611.504 44.2124 617.691 44.3884ZM171.383 107.692C179.59 109.996 187.965 113.599 204.883 122.102C230.204 134.829 237.128 137.721 247.962 140.093C256.324 141.924 258.507 142.917 257.555 144.456C256.969 145.405 228.911 164.74 183.941 195.187C174.316 201.703 163.353 208.335 159.578 209.923C143.667 216.621 123.487 213.555 110.259 202.43C89.2689 184.777 81.689 159.022 91.547 138.843C97.151 127.372 112.655 114.211 127.149 108.621C142.14 102.84 153.272 102.606 171.383 107.692ZM59.6129 112.891C53.8639 126.676 55.5519 148.039 63.6549 164.055C67.6329 171.918 76.825 185.817 80.742 189.891C85.319 194.652 83.946 194.705 71.741 190.237C45.856 180.761 34.6199 172.847 28.6239 159.866C26.8409 156.006 26.4409 153.31 26.4409 145.141C26.4409 136.414 26.7779 134.422 29.0889 129.493C34.4789 117.997 45.9939 110.185 58.2039 109.741C60.9399 109.642 60.9539 109.674 59.6129 112.891ZM806.441 113.641C806.043 114.286 809.932 114.641 817.387 114.641H828.952L828.696 204.864L828.441 295.088L819.441 294.98C812.109 294.892 811.275 295.019 814.941 295.667C817.416 296.104 827.766 296.209 837.941 295.901L856.441 295.342L856.181 203.991L855.92 112.641H831.49C816.281 112.641 806.826 113.018 806.441 113.641ZM370.02 174.087C380.699 177.499 395.001 179.364 420.441 180.662C432.541 181.28 445.053 182.447 448.246 183.255C463.09 187.012 475.582 193.048 484.174 200.614C490.098 205.829 498.879 218.945 502.605 228.141C505.173 234.48 505.441 236.274 505.441 247.141C505.441 258.535 505.283 259.469 502.31 265.641C498.125 274.329 490.899 282.073 481.326 288.129C470.929 294.705 464.45 296.858 453.396 297.41C437.762 298.191 426.072 293.76 416.186 283.306C409.603 276.346 405.073 269.183 398.505 255.35C395.578 249.185 388.373 234.241 382.494 222.141C366.657 189.545 365.363 186.799 362.114 178.891C358.617 170.381 358.548 170.423 370.02 174.087ZM129.06 214.165C132.701 214.932 138.663 215.864 142.31 216.238C146.559 216.673 148.941 217.363 148.941 218.159C148.941 218.842 146.877 222.042 144.354 225.271C141.831 228.499 138.699 233.166 137.394 235.641C133.286 243.432 133.247 243.442 131.947 237.036C130.304 228.943 127.55 222.992 122.887 217.462C118.55 212.319 118.044 211.082 120.691 212.099C121.654 212.469 125.42 213.399 129.06 214.165Z"/>
</mask>
<path fill-rule="evenodd" clip-rule="evenodd" d="M225.441 2.67743C206.145 7.32743 192.608 20.2694 192.608 34.0664C192.608 47.2654 203.208 59.4824 216.207 61.2644C227.851 62.8604 241.093 53.9564 244.463 42.2654C247.52 31.6584 244.546 22.9144 235.082 14.6824C231.704 11.7454 228.941 8.78842 228.941 8.11242C228.941 5.56342 235.257 4.1394 245.941 4.2774C256.395 4.4134 258.994 5.00441 271.441 10.0754C293.5 22.5 275.182 11.5004 273.465 10.1474C272.378 9.29143 267.203 7.19942 261.965 5.49942C254.084 2.94142 250.457 2.34842 240.941 2.06042C234.616 1.86942 227.641 2.14643 225.441 2.67743ZM835.441 43.0584C831.714 44.7224 827.41 49.2374 826.005 52.9564C824.504 56.9294 824.684 65.0914 826.362 69.1074C829.671 77.0254 841.849 80.5384 850.441 76.0534C862.124 69.9534 861.842 50.2164 849.981 43.9444C845.112 41.3694 839.933 41.0544 835.441 43.0584ZM617.691 44.3884L628.941 44.7074L629.15 96.4244C629.46 173.399 629.464 187.394 629.191 243.391L628.941 294.641H620C615.082 294.641 610.781 295.091 610.441 295.641C609.614 296.98 671.87 296.98 673.941 295.641C674.969 294.976 672.533 294.667 666.191 294.656L656.941 294.641L656.949 228.891C656.953 187.748 657.349 160.717 658.007 156.664C659.339 148.452 665.424 135.513 670.778 129.505C685.424 113.072 712.009 110.445 726.694 123.981C729.123 126.22 732.005 129.807 733.1 131.952C737.598 140.77 737.904 145.621 737.938 208.641C737.973 273.451 738.143 275.729 743.686 285.913C746.947 291.906 752.572 296.914 757.799 298.48C763.273 300.12 772.766 299.92 778.257 298.049C786.94 295.091 795.539 285.276 797.452 276.141C797.963 273.7 797.555 274.066 795.261 278.109C790.108 287.188 782.341 289.926 773.922 285.631C766.212 281.698 766.511 284.13 765.868 220.141C765.215 155.077 764.967 152.633 757.473 137.141C747.376 116.267 729.177 107.143 704.191 110.427C687.872 112.572 671.245 123.555 662.441 138.005C660.241 141.616 658.104 144.586 657.691 144.605C657.278 144.625 656.941 121.916 656.941 94.1414V43.6414L631.691 43.8554C617.803 43.9724 611.504 44.2124 617.691 44.3884ZM171.383 107.692C179.59 109.996 187.965 113.599 204.883 122.102C230.204 134.829 237.128 137.721 247.962 140.093C256.324 141.924 258.507 142.917 257.555 144.456C256.969 145.405 228.911 164.74 183.941 195.187C174.316 201.703 163.353 208.335 159.578 209.923C143.667 216.621 123.487 213.555 110.259 202.43C89.2689 184.777 81.689 159.022 91.547 138.843C97.151 127.372 112.655 114.211 127.149 108.621C142.14 102.84 153.272 102.606 171.383 107.692ZM59.6129 112.891C53.8639 126.676 55.5519 148.039 63.6549 164.055C67.6329 171.918 76.825 185.817 80.742 189.891C85.319 194.652 83.946 194.705 71.741 190.237C45.856 180.761 34.6199 172.847 28.6239 159.866C26.8409 156.006 26.4409 153.31 26.4409 145.141C26.4409 136.414 26.7779 134.422 29.0889 129.493C34.4789 117.997 45.9939 110.185 58.2039 109.741C60.9399 109.642 60.9539 109.674 59.6129 112.891ZM806.441 113.641C806.043 114.286 809.932 114.641 817.387 114.641H828.952L828.696 204.864L828.441 295.088L819.441 294.98C812.109 294.892 811.275 295.019 814.941 295.667C817.416 296.104 827.766 296.209 837.941 295.901L856.441 295.342L856.181 203.991L855.92 112.641H831.49C816.281 112.641 806.826 113.018 806.441 113.641ZM370.02 174.087C380.699 177.499 395.001 179.364 420.441 180.662C432.541 181.28 445.053 182.447 448.246 183.255C463.09 187.012 475.582 193.048 484.174 200.614C490.098 205.829 498.879 218.945 502.605 228.141C505.173 234.48 505.441 236.274 505.441 247.141C505.441 258.535 505.283 259.469 502.31 265.641C498.125 274.329 490.899 282.073 481.326 288.129C470.929 294.705 464.45 296.858 453.396 297.41C437.762 298.191 426.072 293.76 416.186 283.306C409.603 276.346 405.073 269.183 398.505 255.35C395.578 249.185 388.373 234.241 382.494 222.141C366.657 189.545 365.363 186.799 362.114 178.891C358.617 170.381 358.548 170.423 370.02 174.087ZM129.06 214.165C132.701 214.932 138.663 215.864 142.31 216.238C146.559 216.673 148.941 217.363 148.941 218.159C148.941 218.842 146.877 222.042 144.354 225.271C141.831 228.499 138.699 233.166 137.394 235.641C133.286 243.432 133.247 243.442 131.947 237.036C130.304 228.943 127.55 222.992 122.887 217.462C118.55 212.319 118.044 211.082 120.691 212.099C121.654 212.469 125.42 213.399 129.06 214.165Z" stroke="black" stroke-width="4" mask="url(#path-1-outside-1_1_7)"/>
</svg>
